<svg width="162" height="188" viewBox="0 0 162 188" fill="none" xmlns="http://www.w3.org/2000/svg">
<g opacity="0.5">
<mask id="path-1-outside-1_1121_2748" maskUnits="userSpaceOnUse" x="0" y="0" width="162" height="188" fill="black">
<rect fill="white" width="162" height="188"/>
<path d="M24.9252 54.0841C24.9252 60.6909 19.5694 66.0468 12.9626 66.0468C6.35585 66.0468 1 60.6909 1 54.0841C1 47.4774 6.35585 42.1215 12.9626 42.1215C19.5694 42.1215 24.9252 47.4774 24.9252 54.0841Z"/>
<path d="M1.99688 136.541C1.44632 136.541 0.996219 136.094 1.03634 135.545C1.14262 134.09 1.48111 132.66 2.04055 131.309C2.72814 129.65 3.73448 128.143 5.00451 126.873C6.2737 125.604 7.78071 124.597 9.43959 123.91C11.0985 123.223 12.8758 122.869 14.6716 122.869H17.0926C17.6431 122.869 18.0895 123.315 18.0895 123.866V132.126C18.0895 132.676 18.5358 133.123 19.0863 133.123H27.3462C27.8968 133.123 28.3469 133.57 28.3068 134.119C28.2005 135.573 27.862 137.003 27.3026 138.355C26.615 140.013 25.6086 141.52 24.3386 142.79C23.0694 144.059 21.5624 145.067 19.9035 145.754C18.2447 146.441 16.4673 146.794 14.6716 146.794H12.2506C11.7 146.794 11.2537 146.348 11.2537 145.797V137.537C11.2537 136.987 10.8074 136.541 10.2568 136.541H1.99688Z"/>
<path d="M78.8728 180.894C78.7332 180.353 78.225 179.97 77.6668 179.987C77.5819 179.989 77.4967 179.991 77.4112 179.991C72.7865 179.991 69.0374 176.241 69.0374 171.617C69.0374 166.992 72.7865 163.243 77.4112 163.243C81.311 163.243 84.5882 165.909 85.5198 169.518C85.6594 170.058 86.1676 170.441 86.7258 170.424C86.8107 170.422 86.8958 170.42 86.9813 170.42C91.6061 170.42 95.3552 174.17 95.3552 178.794C95.3552 183.419 91.6061 187.168 86.9813 187.168C83.0815 187.168 79.8044 184.502 78.8728 180.894Z"/>
<path d="M161 64.053V46.9349C161 45.1586 158.852 44.2691 157.596 45.5251L140.478 62.6432C139.222 63.8992 140.112 66.0468 141.888 66.0468H159.006C160.107 66.0468 161 65.1541 161 64.053Z"/>
<path d="M147.044 122.869C145.943 122.869 145.05 123.762 145.05 124.863V130.844H139.069C137.968 130.844 137.075 131.737 137.075 132.838V144.8C137.075 145.902 137.968 146.794 139.069 146.794H151.031C152.132 146.794 153.025 145.902 153.025 144.8V138.819H159.006C160.107 138.819 161 137.927 161 136.825V124.863C161 123.762 160.107 122.869 159.006 122.869H147.044Z"/>
<path d="M69.7852 2.99377C69.7852 1.89264 70.6778 1 71.7789 1H83.3145C83.8432 1 84.3504 1.21006 84.7243 1.58396L93.1264 9.98613C93.5004 10.36 93.7104 10.8672 93.7104 11.3959V22.9315C93.7104 24.0326 92.8178 24.9252 91.7166 24.9252H80.1811C79.6523 24.9252 79.1452 24.7152 78.7713 24.3413L70.3691 15.9391C69.9952 15.5652 69.7852 15.0581 69.7852 14.5293V2.99377Z"/>
<path d="M76.6498 112.913C76.6498 110.365 78.7147 108.301 81.2618 108.301H81.5491C84.0962 108.301 86.1611 110.365 86.1611 112.913C86.1611 115.46 84.0962 117.525 81.5491 117.525H81.2618C78.7147 117.525 76.6498 115.46 76.6498 112.913ZM69.7091 85.3202C67.141 85.3202 65.0135 83.1526 65.6467 80.6638C66.5792 76.9985 68.4808 74.2525 71.3515 72.4257C73.8623 70.8085 76.9477 69.9999 80.6075 69.9999C85.4164 69.9999 89.406 71.149 92.5765 73.447C95.7682 75.745 97.3641 79.1496 97.3641 83.6605C97.3641 86.4267 96.6725 88.7566 95.2894 90.6504C94.4809 91.7994 92.9276 93.2676 90.6295 95.055L88.3634 96.8104C87.1293 97.7679 86.3101 98.885 85.9058 100.162C85.2714 102.171 83.7969 103.928 81.6903 103.928H81.2854C78.8744 103.928 76.8894 101.92 77.2032 99.529C77.3759 98.2132 77.6064 97.2007 77.8946 96.4912C78.4478 95.1082 79.8734 93.5229 82.1715 91.7356L84.5014 89.9163C85.2674 89.3418 85.8845 88.7141 86.3526 88.0332C87.2038 86.8629 87.6293 85.5755 87.6293 84.1712C87.6293 82.554 87.1506 81.0859 86.193 79.7666C85.2568 78.4261 83.5333 77.7558 81.0224 77.7558C78.5542 77.7558 76.7987 78.575 75.7561 80.2135C75.5968 80.4689 75.45 80.726 75.3156 80.9845C74.1654 83.197 72.2027 85.3202 69.7091 85.3202Z"/>
</mask>
<path d="M1.03634 135.545L1.82632 135.602L1.03634 135.545ZM2.04055 131.309L1.30885 131.005L1.30872 131.006L2.04055 131.309ZM5.00451 126.873L5.56449 127.434L5.56466 127.433L5.00451 126.873ZM9.43959 123.91L9.74266 124.642L9.74268 124.642L9.43959 123.91ZM28.3068 134.119L29.0968 134.176L28.3068 134.119ZM27.3026 138.355L28.0343 138.658L28.0344 138.658L27.3026 138.355ZM24.3386 142.79L23.7786 142.23L23.7785 142.23L24.3386 142.79ZM19.9035 145.754L19.6005 145.022L19.6004 145.022L19.9035 145.754ZM78.8728 180.894L78.1059 181.092L78.8728 180.894ZM77.6668 179.987L77.643 179.195H77.643L77.6668 179.987ZM85.5198 169.518L86.2867 169.32L85.5198 169.518ZM86.7258 170.424L86.7021 169.633L86.7258 170.424ZM157.596 45.5251L158.157 46.0852L157.596 45.5251ZM140.478 62.6432L141.038 63.2033L140.478 62.6432ZM145.05 130.844V131.636H145.842V130.844H145.05ZM153.025 138.819V138.027H152.233V138.819H153.025ZM84.7243 1.58396L84.1642 2.14405L84.7243 1.58396ZM93.1264 9.98613L92.5664 10.5462V10.5462L93.1264 9.98613ZM78.7713 24.3413L79.3314 23.7812V23.7812L78.7713 24.3413ZM70.3691 15.9391L70.9292 15.379L70.3691 15.9391ZM65.6467 80.6638L64.8791 80.4685L65.6467 80.6638ZM71.3515 72.4257L71.7768 73.0939L71.7804 73.0916L71.3515 72.4257ZM92.5765 73.447L92.1116 74.0883L92.1137 74.0898L92.5765 73.447ZM95.2894 90.6504L94.6497 90.1832L94.6417 90.1946L95.2894 90.6504ZM90.6295 95.055L91.1146 95.6811L91.1158 95.6802L90.6295 95.055ZM88.3634 96.8104L87.8783 96.1842L87.8779 96.1846L88.3634 96.8104ZM85.9058 100.162L85.1507 99.9226L85.1505 99.9232L85.9058 100.162ZM77.2032 99.529L76.4178 99.4259L77.2032 99.529ZM77.8946 96.4912L78.6284 96.7894L78.63 96.7854L77.8946 96.4912ZM82.1715 91.7356L82.6578 92.3608L82.6589 92.3599L82.1715 91.7356ZM84.5014 89.9163L84.0262 89.2826L84.02 89.2872L84.0139 89.292L84.5014 89.9163ZM86.3526 88.0332L85.712 87.5673L85.7059 87.5758L85.6999 87.5844L86.3526 88.0332ZM86.193 79.7666L85.5436 80.2202L85.5478 80.2261L85.552 80.2319L86.193 79.7666ZM75.7561 80.2135L75.0878 79.7882L75.0839 79.7944L75.7561 80.2135ZM75.3156 80.9845L76.0184 81.3499L75.3156 80.9845ZM24.1332 54.0841C24.1332 60.2535 19.1319 65.2547 12.9626 65.2547V66.8388C20.0068 66.8388 25.7173 61.1284 25.7173 54.0841H24.1332ZM12.9626 65.2547C6.7933 65.2547 1.79208 60.2535 1.79208 54.0841H0.207921C0.207921 61.1284 5.91839 66.8388 12.9626 66.8388V65.2547ZM1.79208 54.0841C1.79208 47.9148 6.7933 42.9136 12.9626 42.9136V41.3294C5.91839 41.3294 0.207921 47.0399 0.207921 54.0841H1.79208ZM12.9626 42.9136C19.1319 42.9136 24.1332 47.9148 24.1332 54.0841H25.7173C25.7173 47.0399 20.0068 41.3294 12.9626 41.3294V42.9136ZM1.99688 135.749C1.93802 135.749 1.89107 135.725 1.86149 135.695C1.8342 135.667 1.82378 135.637 1.82632 135.602L0.24637 135.487C0.169898 136.533 1.02562 137.333 1.99688 137.333V135.749ZM1.82632 135.602C1.92643 134.232 2.24532 132.885 2.77239 131.612L1.30872 131.006C0.716907 132.435 0.358803 133.948 0.24637 135.487L1.82632 135.602ZM2.77226 131.612C3.42013 130.049 4.36821 128.629 5.56449 127.434L4.44452 126.313C3.10074 127.656 2.03614 129.251 1.30885 131.005L2.77226 131.612ZM5.56466 127.433C6.76028 126.237 8.17993 125.289 9.74266 124.642L9.13652 123.178C7.38149 123.905 5.78712 124.97 4.44435 126.313L5.56466 127.433ZM9.74268 124.642C11.3055 123.994 12.9799 123.661 14.6716 123.661V122.077C12.7718 122.077 10.8914 122.451 9.1365 123.178L9.74268 124.642ZM14.6716 123.661H17.0926V122.077H14.6716V123.661ZM17.0926 123.661C17.2057 123.661 17.2974 123.753 17.2974 123.866H18.8815C18.8815 122.878 18.0806 122.077 17.0926 122.077V123.661ZM17.2974 123.866V132.126H18.8815V123.866H17.2974ZM17.2974 132.126C17.2974 133.114 18.0983 133.915 19.0863 133.915V132.331C18.9732 132.331 18.8815 132.239 18.8815 132.126H17.2974ZM19.0863 133.915H27.3462V132.331H19.0863V133.915ZM27.3462 133.915C27.4051 133.915 27.452 133.938 27.4816 133.969C27.5089 133.996 27.5193 134.026 27.5168 134.061L29.0968 134.176C29.1732 133.13 28.3175 132.331 27.3462 132.331V133.915ZM27.5168 134.061C27.4167 135.431 27.0978 136.779 26.5707 138.052L28.0344 138.658C28.6262 137.228 28.9843 135.715 29.0968 134.176L27.5168 134.061ZM26.5709 138.051C25.923 139.614 24.9749 141.034 23.7786 142.23L24.8986 143.35C26.2424 142.007 27.307 140.412 28.0343 138.658L26.5709 138.051ZM23.7785 142.23C22.5828 143.426 21.1632 144.375 19.6005 145.022L20.2066 146.485C21.9616 145.759 23.556 144.693 24.8988 143.35L23.7785 142.23ZM19.6004 145.022C18.0376 145.669 16.3632 146.002 14.6716 146.002V147.586C16.5713 147.586 18.4517 147.212 20.2066 146.485L19.6004 145.022ZM14.6716 146.002H12.2506V147.586H14.6716V146.002ZM12.2506 146.002C12.1374 146.002 12.0457 145.91 12.0457 145.797H10.4616C10.4616 146.785 11.2625 147.586 12.2506 147.586V146.002ZM12.0457 145.797V137.537H10.4616V145.797H12.0457ZM12.0457 137.537C12.0457 136.549 11.2448 135.749 10.2568 135.749V137.333C10.3699 137.333 10.4616 137.424 10.4616 137.537H12.0457ZM10.2568 135.749H1.99688V137.333H10.2568V135.749ZM79.6397 180.696C79.4079 179.798 78.5722 179.167 77.643 179.195L77.6905 180.778C77.8777 180.773 78.0585 180.908 78.1059 181.092L79.6397 180.696ZM77.643 179.195C77.5661 179.197 77.4889 179.198 77.4112 179.198V180.783C77.5046 180.783 77.5977 180.781 77.6905 180.778L77.643 179.195ZM77.4112 179.198C73.224 179.198 69.8295 175.804 69.8295 171.617H68.2453C68.2453 176.679 72.349 180.783 77.4112 180.783V179.198ZM69.8295 171.617C69.8295 167.429 73.224 164.035 77.4112 164.035V162.451C72.349 162.451 68.2453 166.555 68.2453 171.617H69.8295ZM77.4112 164.035C80.9411 164.035 83.9093 166.448 84.7528 169.716L86.2867 169.32C85.2671 165.37 81.681 162.451 77.4112 162.451V164.035ZM84.7528 169.716C84.9846 170.613 85.8203 171.244 86.7495 171.216L86.7021 169.633C86.5149 169.638 86.3341 169.503 86.2867 169.32L84.7528 169.716ZM86.7495 171.216C86.8264 171.214 86.9037 171.213 86.9813 171.213V169.628C86.888 169.628 86.7949 169.63 86.7021 169.633L86.7495 171.216ZM86.9813 171.213C91.1686 171.213 94.5631 174.607 94.5631 178.794H96.1472C96.1472 173.732 92.0435 169.628 86.9813 169.628V171.213ZM94.5631 178.794C94.5631 182.982 91.1686 186.376 86.9813 186.376V187.96C92.0435 187.96 96.1472 183.857 96.1472 178.794H94.5631ZM86.9813 186.376C83.4515 186.376 80.4832 183.963 79.6397 180.696L78.1059 181.092C79.1255 185.041 82.7116 187.96 86.9813 187.96V186.376ZM161.792 64.053V46.9349H160.208V64.053H161.792ZM161.792 46.9349C161.792 44.453 158.791 43.21 157.036 44.965L158.157 46.0852C158.914 45.3282 160.208 45.8643 160.208 46.9349H161.792ZM157.036 44.965L139.918 62.0831L141.038 63.2033L158.157 46.0852L157.036 44.965ZM139.918 62.0831C138.163 63.8381 139.406 66.8388 141.888 66.8388V65.2547C140.818 65.2547 140.281 63.9603 141.038 63.2033L139.918 62.0831ZM141.888 66.8388H159.006V65.2547H141.888V66.8388ZM159.006 66.8388C160.545 66.8388 161.792 65.5916 161.792 64.053H160.208C160.208 64.7167 159.67 65.2547 159.006 65.2547V66.8388ZM147.044 122.077C145.505 122.077 144.258 123.324 144.258 124.863H145.842C145.842 124.199 146.38 123.661 147.044 123.661V122.077ZM144.258 124.863V130.844H145.842V124.863H144.258ZM145.05 130.052H139.069V131.636H145.05V130.052ZM139.069 130.052C137.53 130.052 136.283 131.299 136.283 132.838H137.867C137.867 132.174 138.405 131.636 139.069 131.636V130.052ZM136.283 132.838V144.8H137.867V132.838H136.283ZM136.283 144.8C136.283 146.339 137.53 147.586 139.069 147.586V146.002C138.405 146.002 137.867 145.464 137.867 144.8H136.283ZM139.069 147.586H151.031V146.002H139.069V147.586ZM151.031 147.586C152.57 147.586 153.817 146.339 153.817 144.8H152.233C152.233 145.464 151.695 146.002 151.031 146.002V147.586ZM153.817 144.8V138.819H152.233V144.8H153.817ZM153.025 139.611H159.006V138.027H153.025V139.611ZM159.006 139.611C160.545 139.611 161.792 138.364 161.792 136.825H160.208C160.208 137.489 159.67 138.027 159.006 138.027V139.611ZM161.792 136.825V124.863H160.208V136.825H161.792ZM161.792 124.863C161.792 123.324 160.545 122.077 159.006 122.077V123.661C159.67 123.661 160.208 124.199 160.208 124.863H161.792ZM159.006 122.077H147.044V123.661H159.006V122.077ZM70.5772 2.99377C70.5772 2.33009 71.1153 1.79208 71.7789 1.79208V0.207921C70.2404 0.207921 68.9931 1.45519 68.9931 2.99377H70.5772ZM71.7789 1.79208H83.3145V0.207921H71.7789V1.79208ZM83.3145 1.79208C83.6332 1.79208 83.9388 1.91868 84.1642 2.14405L85.2844 1.02388C84.7619 0.50143 84.0533 0.207921 83.3145 0.207921V1.79208ZM92.5664 10.5462C92.7917 10.7716 92.9183 11.0772 92.9183 11.3959H94.5025C94.5025 10.6571 94.209 9.94849 93.6865 9.42605L92.5664 10.5462ZM92.9183 11.3959V22.9315H94.5025V11.3959H92.9183ZM92.9183 22.9315C92.9183 23.5951 92.3803 24.1332 91.7166 24.1332V25.7173C93.2552 25.7173 94.5025 24.47 94.5025 22.9315H92.9183ZM91.7166 24.1332H80.1811V25.7173H91.7166V24.1332ZM80.1811 24.1332C79.8624 24.1332 79.5567 24.0065 79.3314 23.7812L78.2112 24.9014C78.7337 25.4238 79.4423 25.7173 80.1811 25.7173V24.1332ZM70.9292 15.379C70.7039 15.1537 70.5772 14.848 70.5772 14.5293H68.9931C68.9931 15.2681 69.2866 15.9767 69.8091 16.4992L70.9292 15.379ZM70.5772 14.5293V2.99377H68.9931V14.5293H70.5772ZM84.1642 2.14405L92.5664 10.5462L93.6865 9.42605L85.2844 1.02388L84.1642 2.14405ZM79.3314 23.7812L70.9292 15.379L69.8091 16.4992L78.2112 24.9014L79.3314 23.7812ZM77.4419 112.913C77.4419 110.803 79.1521 109.093 81.2618 109.093V107.509C78.2772 107.509 75.8577 109.928 75.8577 112.913H77.4419ZM81.2618 109.093H81.5491V107.509H81.2618V109.093ZM81.5491 109.093C83.6588 109.093 85.369 110.803 85.369 112.913H86.9532C86.9532 109.928 84.5337 107.509 81.5491 107.509V109.093ZM85.369 112.913C85.369 115.022 83.6588 116.733 81.5491 116.733V118.317C84.5337 118.317 86.9532 115.897 86.9532 112.913H85.369ZM81.5491 116.733H81.2618V118.317H81.5491V116.733ZM81.2618 116.733C79.1521 116.733 77.4419 115.022 77.4419 112.913H75.8577C75.8577 115.897 78.2772 118.317 81.2618 118.317V116.733ZM69.7091 84.5281C67.5234 84.5281 65.9398 82.7245 66.4144 80.8591L64.8791 80.4685C64.0873 83.5807 66.7586 86.1123 69.7091 86.1123V84.5281ZM66.4144 80.8591C67.3031 77.3656 69.0958 74.8 71.7768 73.0939L70.9263 71.7574C67.8659 73.7049 65.8553 76.6314 64.8791 80.4685L66.4144 80.8591ZM71.7804 73.0916C74.1372 71.5737 77.0653 70.792 80.6075 70.792V69.2079C76.83 69.2079 73.5875 70.0434 70.9226 71.7597L71.7804 73.0916ZM80.6075 70.792C85.2881 70.792 89.1047 71.9088 92.1116 74.0883L93.0413 72.8057C89.7074 70.3891 85.5446 69.2079 80.6075 69.2079V70.792ZM92.1137 74.0898C95.0661 76.2155 96.572 79.3613 96.572 83.6605H98.1561C98.1561 78.9378 96.4703 75.2746 93.0393 72.8042L92.1137 74.0898ZM96.572 83.6605C96.572 86.2898 95.9169 88.4482 94.6498 90.1832L95.9291 91.1176C97.4281 89.0651 98.1561 86.5635 98.1561 83.6605H96.572ZM94.6417 90.1946C93.9047 91.2419 92.4309 92.6505 90.1432 94.4297L91.1158 95.6802C93.4242 93.8848 95.0571 92.3569 95.9372 91.1062L94.6417 90.1946ZM90.1445 94.4288L87.8783 96.1842L88.8485 97.4366L91.1146 95.6811L90.1445 94.4288ZM87.8779 96.1846C86.5384 97.2238 85.6112 98.4684 85.1507 99.9226L86.6609 100.401C87.009 99.3017 87.7201 98.312 88.849 97.4362L87.8779 96.1846ZM85.1505 99.9232C84.5607 101.791 83.2881 103.136 81.6903 103.136V104.72C84.3057 104.72 85.982 102.551 86.6611 100.4L85.1505 99.9232ZM81.6903 103.136H81.2854V104.72H81.6903V103.136ZM81.2854 103.136C79.2909 103.136 77.7448 101.489 77.9885 99.6321L76.4178 99.4259C76.034 102.35 78.4578 104.72 81.2854 104.72V103.136ZM77.9885 99.6321C78.1579 98.3421 78.3775 97.4068 78.6284 96.7894L77.1607 96.1931C76.8352 96.9945 76.5939 98.0844 76.4178 99.4259L77.9885 99.6321ZM78.63 96.7854C79.1013 95.6071 80.3832 94.1299 82.6578 92.3608L81.6852 91.1103C79.3636 92.916 77.7943 94.6092 77.1591 96.1971L78.63 96.7854ZM82.6589 92.3599L84.9889 90.5406L84.0139 89.292L81.684 91.1113L82.6589 92.3599ZM84.9767 90.55C85.8008 89.9319 86.4814 89.2439 87.0053 88.4819L85.6999 87.5844C85.2876 88.1842 84.7341 88.7517 84.0262 89.2826L84.9767 90.55ZM86.9932 88.4991C87.9396 87.1978 88.4214 85.7483 88.4214 84.1712H86.8372C86.8372 85.4028 86.4679 86.528 85.712 87.5673L86.9932 88.4991ZM88.4214 84.1712C88.4214 82.3855 87.8889 80.7547 86.8341 79.3014L85.552 80.2319C86.4122 81.417 86.8372 82.7226 86.8372 84.1712H88.4214ZM86.8424 79.3131C85.6912 77.6648 83.6479 76.9638 81.0224 76.9638V78.5479C83.4186 78.5479 84.8224 79.1874 85.5436 80.2202L86.8424 79.3131ZM81.0224 76.9638C78.3668 76.9638 76.3156 77.8588 75.0879 79.7882L76.4243 80.6387C77.2818 79.2912 78.7416 78.5479 81.0224 78.5479V76.9638ZM75.0839 79.7944C74.9141 80.0668 74.757 80.3417 74.6128 80.6192L76.0184 81.3499C76.143 81.1102 76.2796 80.871 76.4283 80.6325L75.0839 79.7944ZM74.6128 80.6192C73.4957 82.7681 71.7356 84.5281 69.7091 84.5281V86.1123C72.6697 86.1123 74.8352 83.6258 76.0184 81.3499L74.6128 80.6192Z" fill="black" mask="url(#path-1-outside-1_1121_2748)"/>
</g>
</svg>
