<svg width="233" height="40" viewBox="0 0 233 40" fill="none" xmlns="http://www.w3.org/2000/svg">
<path fill-rule="evenodd" clip-rule="evenodd" d="M58.0599 25.6007C48.8691 23.5342 39.3091 22.4436 29.4944 22.4436C19.6795 22.4436 10.1194 23.5342 0.928589 25.6008C2.95462 11.6402 14.9721 0.916504 29.4942 0.916504C44.0163 0.916504 56.0338 11.6402 58.0599 25.6007Z" fill="black"/>
<path fill-rule="evenodd" clip-rule="evenodd" d="M33.2953 26.1656L33.3 26.1664C33.3195 25.909 33.3299 25.6333 33.3299 25.3385V13.5958C33.3299 12.9515 33.4579 12.3249 33.7222 11.7339C33.952 11.1663 34.2781 10.6504 34.7072 10.2058C35.1363 9.76123 35.6417 9.41547 36.2077 9.16905C36.7987 8.88572 37.4323 8.74561 38.0874 8.74561H38.1392C38.8042 8.74561 39.4448 8.8898 40.0446 9.16931C40.6021 9.4195 41.0966 9.76771 41.5194 10.2058C41.9454 10.6472 42.2772 11.1576 42.5231 11.718L42.5302 11.7343L42.5369 11.7506C42.7808 12.3402 42.8968 12.9606 42.8968 13.5958V25.4998C42.8968 25.5366 42.8967 25.5733 42.8965 25.61L43.0049 25.5812L42.8626 26.742C42.7758 28.2862 42.5224 29.7242 42.0871 31.0452L42.0833 31.0566L42.0794 31.0679C41.5092 32.7183 40.6667 34.1588 39.5331 35.3548C38.8968 36.0262 38.1825 36.6059 37.3955 37.0954C36.7192 37.5245 35.989 37.8874 35.2083 38.1851L35.1994 38.1885L35.1905 38.1918C33.553 38.7954 31.7374 39.0798 29.7695 39.0798C27.7814 39.0798 25.9512 38.7856 24.3075 38.1594C22.6574 37.5375 21.2353 36.6209 20.0744 35.3993C18.8976 34.1796 18.0272 32.7039 17.4445 31.0082C16.8608 29.3095 16.5848 27.4223 16.5848 25.3694V13.6082C16.5848 12.9576 16.7167 12.3258 16.9876 11.7311C17.2234 11.1598 17.5571 10.6425 17.9942 10.1981C18.4313 9.75366 18.9445 9.4097 19.5173 9.16515C20.1145 8.88405 20.7532 8.74566 21.4128 8.74566H21.4659C22.1353 8.74566 22.7813 8.88803 23.3876 9.16539C23.9516 9.41369 24.4538 9.7601 24.8845 10.1981C25.3186 10.6395 25.658 11.1512 25.9101 11.715L25.9174 11.7314L25.9243 11.7479C26.1745 12.3415 26.2939 12.967 26.2939 13.6082V25.5852C26.2939 27.2607 26.6845 28.2453 27.1943 28.8155L27.1999 28.8218L27.2055 28.8281C27.6632 29.3506 28.4145 29.7324 29.7695 29.7324C31.0609 29.7324 31.7972 29.3588 32.265 28.819C32.5004 28.5378 32.7122 28.1512 32.8694 27.616L33.2953 26.1656ZM24.9339 34.7735C24.8389 34.7758 24.7437 34.777 24.6482 34.777C23.5134 34.777 22.4121 34.6119 21.3616 34.3015C21.3432 34.2825 21.3249 34.2634 21.3067 34.2442C20.3163 33.2192 19.5646 31.9603 19.0517 30.4677C18.5388 28.9751 18.2824 27.2756 18.2824 25.3694V13.6082C18.2824 13.1766 18.3708 12.7719 18.5477 12.3943C18.7068 11.9987 18.9279 11.657 19.2109 11.3692C19.4939 11.0815 19.8299 10.8567 20.219 10.6949C20.5904 10.515 20.9884 10.4251 21.4128 10.4251H21.4659C21.8903 10.4251 22.2971 10.515 22.6862 10.6949C23.0576 10.8567 23.3848 11.0815 23.6678 11.3692C23.9508 11.657 24.1807 11.9987 24.3576 12.3943C24.5167 12.7719 24.5963 13.1766 24.5963 13.6082V25.5852C24.5963 27.4914 25.0385 28.9391 25.9228 29.9282C26.7894 30.9173 28.0716 31.4118 29.7695 31.4118C30.4586 31.4118 31.0794 31.3253 31.6318 31.1523C31.3816 31.532 31.1063 31.8788 30.8068 32.1947C30.042 33.0017 29.0937 33.6352 27.9328 34.0877C27.0576 34.4154 26.0654 34.6289 24.9438 34.7134L24.9339 34.7735Z" fill="black"/>
<g clip-path="url(#clip0_215_2479)">
<mask id="mask0_215_2479" style="mask-type:alpha" maskUnits="userSpaceOnUse" x="0" y="0" width="59" height="26">
<path fill-rule="evenodd" clip-rule="evenodd" d="M58.06 25.6006C48.8692 23.5341 39.3091 22.4435 29.4942 22.4435C19.6795 22.4435 10.1194 23.5341 0.928589 25.6006C2.95448 11.6399 14.972 0.916016 29.4942 0.916016C44.0166 0.916016 56.0342 11.6399 58.06 25.6006Z" fill="white"/>
</mask>
<g mask="url(#mask0_215_2479)">
<path d="M21.5835 33.9327C22.5436 34.2064 23.5466 34.3542 24.5791 34.3605L24.5851 34.3228L24.9119 34.2982C25.9985 34.2164 26.9508 34.0105 27.7839 33.6989C28.8909 33.2669 29.7857 32.6668 30.5048 31.9081C30.5445 31.8662 30.5839 31.8236 30.6227 31.7805C30.3482 31.811 30.0635 31.8261 29.7689 31.8261C27.9895 31.8261 26.5782 31.3052 25.6112 30.2023C24.6353 29.1097 24.1804 27.5474 24.1804 25.5842V13.6072C24.1804 13.2296 24.1113 12.8814 23.9759 12.5586C23.8181 12.2067 23.616 11.9084 23.3711 11.6594L21.5835 33.9327ZM21.5835 33.9327C20.6501 32.9598 19.9354 31.7622 19.4439 30.3318C18.9486 28.8904 18.6971 27.2379 18.6971 25.3685V13.6072C18.6971 13.2343 18.773 12.89 18.9232 12.5694L18.9281 12.559L18.9324 12.5483C19.0722 12.2006 19.264 11.9059 19.5064 11.6594C19.7487 11.413 20.0377 11.2188 20.3779 11.0773L20.3888 11.0728L20.3994 11.0676C20.7127 10.9159 21.0486 10.8394 21.4122 10.8394H21.4653C21.829 10.8394 22.1764 10.916 22.5114 11.0708L22.5113 11.0709L22.5197 11.0746C22.8426 11.2153 23.1256 11.4097 23.3711 11.6594L21.5835 33.9327ZM34.4078 9.91641C33.9412 10.3998 33.5879 10.9591 33.3395 11.5702C33.0524 12.2147 32.914 12.8969 32.914 13.5949V25.3376C32.914 25.5974 32.9056 25.8405 32.8901 26.0683L32.4703 27.4979L32.4703 27.4979C32.327 27.986 32.1403 28.3185 31.9483 28.5488C31.5777 28.9749 30.9691 29.3162 29.7689 29.3162C28.4977 29.3162 27.8754 28.9621 27.5174 28.5534L27.5175 28.5533L27.5097 28.5449L27.5068 28.5418L27.5041 28.5387L27.5033 28.5379C27.086 28.0708 26.7085 27.2009 26.7085 25.5842V13.6072C26.7085 12.9137 26.5793 12.233 26.3065 11.5857L26.3066 11.5857L26.3049 11.5819L26.2978 11.5654L26.2974 11.5645L26.2902 11.5481L26.2902 11.5481L26.2886 11.5445C26.0178 10.9389 25.6513 10.3851 25.1799 9.90588C24.7128 9.431 24.168 9.05488 23.557 8.78553C22.8978 8.48442 22.1939 8.32939 21.4653 8.32939H21.4122C20.6958 8.32939 19.999 8.47944 19.3467 8.78519C18.729 9.04994 18.1724 9.42304 17.6975 9.90588L17.6975 9.90589C17.2227 10.3888 16.8609 10.9494 16.606 11.5648C16.3116 12.2135 16.1689 12.9019 16.1689 13.6072V25.3685C16.1689 27.458 16.4498 29.3921 17.0512 31.1423L17.4434 31.0075L17.0512 31.1423C17.6512 32.8884 18.5511 34.4179 19.7739 35.6854C20.9811 36.9554 22.457 37.9049 24.1601 38.5469C25.8592 39.194 27.7407 39.494 29.7689 39.494C31.7759 39.494 33.6407 39.204 35.3319 38.581C35.3324 38.5808 35.333 38.5806 35.3335 38.5804L35.3392 38.5784L35.3392 38.5786L35.3515 38.5738L35.358 38.5712C36.1617 38.2646 36.9158 37.8901 37.6157 37.4461C38.4316 36.9386 39.173 36.3368 39.834 35.6396L39.834 35.6396C41.0125 34.3961 41.884 32.9026 42.4713 31.2024L42.475 31.1916L42.4751 31.1916L42.4775 31.1843L42.4808 31.1742C42.9279 29.8175 43.1867 28.3476 43.2759 26.778L43.4166 25.6308L43.4914 25.021L43.3115 25.0689V13.5949C43.3115 12.9082 43.1858 12.2336 42.92 11.5909L42.914 11.5762L42.9142 11.5762L42.9096 11.5658L42.9028 11.5503C42.9027 11.5502 42.9026 11.55 42.9026 11.5499C42.6387 10.9481 42.2802 10.3959 41.8177 9.91647L41.8176 9.91638C41.3588 9.44111 40.8217 9.06255 40.2166 8.79068C39.5635 8.48671 38.864 8.32935 38.1387 8.32935H38.0868C37.3738 8.32935 36.6811 8.48162 36.0345 8.79029C35.4228 9.05753 34.8743 9.4331 34.4078 9.91639L34.4078 9.91641Z" fill="black" stroke="white" stroke-width="0.830563"/>
</g>
</g>
<path d="M76.1605 13.2227C76.3774 13.2227 76.5807 13.2679 76.7705 13.3583C76.9693 13.4396 77.141 13.5525 77.2856 13.6971C77.4302 13.8417 77.5431 14.0134 77.6244 14.2122C77.7148 14.402 77.76 14.6053 77.76 14.8221V20.7319C77.76 21.6898 77.629 22.5437 77.3669 23.2938C77.1048 24.0438 76.7208 24.6763 76.2148 25.1914C75.7178 25.7065 75.1033 26.0996 74.3713 26.3707C73.6484 26.6417 72.8216 26.7773 71.8908 26.7773C70.9691 26.7773 70.1468 26.6463 69.4239 26.3842C68.701 26.1131 68.091 25.7246 67.594 25.2185C67.097 24.7125 66.7175 24.0935 66.4555 23.3615C66.2024 22.6206 66.0759 21.7756 66.0759 20.8268V14.8221C66.0759 14.6053 66.1166 14.402 66.1979 14.2122C66.2883 14.0134 66.4058 13.8417 66.5503 13.6971C66.6949 13.5525 66.8621 13.4396 67.0519 13.3583C67.2507 13.2679 67.4585 13.2227 67.6754 13.2227H67.7025C67.9194 13.2227 68.1227 13.2679 68.3124 13.3583C68.5112 13.4396 68.6829 13.5525 68.8275 13.6971C68.9721 13.8417 69.085 14.0134 69.1664 14.2122C69.2567 14.402 69.3019 14.6053 69.3019 14.8221V20.7455C69.3019 21.7485 69.5188 22.5031 69.9525 23.0091C70.3953 23.5152 71.0414 23.7682 71.8908 23.7682C72.7583 23.7682 73.4135 23.5197 73.8563 23.0227C74.3081 22.5257 74.534 21.7982 74.534 20.8404V14.8221C74.534 14.6053 74.5747 14.402 74.656 14.2122C74.7463 14.0134 74.8638 13.8417 75.0084 13.6971C75.153 13.5525 75.3202 13.4396 75.5099 13.3583C75.7087 13.2679 75.9166 13.2227 76.1334 13.2227H76.1605Z" fill="black"/>
<path d="M88.4715 14.8221C88.4715 14.5962 88.5122 14.3884 88.5935 14.1986C88.6838 13.9998 88.8013 13.8281 88.9459 13.6836C89.0905 13.539 89.2577 13.426 89.4474 13.3447C89.6462 13.2634 89.8541 13.2227 90.0709 13.2227H90.098C90.3149 13.2227 90.5182 13.2679 90.708 13.3583C90.9068 13.4396 91.0785 13.5525 91.2231 13.6971C91.3677 13.8417 91.4806 14.0134 91.5619 14.2122C91.6523 14.402 91.6975 14.6053 91.6975 14.8221V24.961C91.6975 25.214 91.6478 25.4535 91.5484 25.6794C91.458 25.8962 91.3315 26.086 91.1689 26.2487C91.0062 26.4113 90.8119 26.5423 90.586 26.6417C90.3691 26.7321 90.1342 26.7773 89.8812 26.7773H89.8541C89.5649 26.7773 89.2938 26.714 89.0408 26.5875C88.7878 26.461 88.5754 26.2848 88.4037 26.0589L82.8463 18.7665V25.1778C82.8463 25.4038 82.8012 25.6161 82.7108 25.8149C82.6295 26.0047 82.5165 26.1719 82.3719 26.3164C82.2273 26.461 82.0557 26.574 81.8569 26.6553C81.6671 26.7366 81.4638 26.7773 81.2469 26.7773H81.2198C81.0029 26.7773 80.7951 26.7366 80.5963 26.6553C80.4065 26.5649 80.2393 26.4475 80.0948 26.3029C79.9502 26.1583 79.8327 25.9911 79.7423 25.8014C79.661 25.6026 79.6203 25.3947 79.6203 25.1778V15.1746C79.6203 14.9035 79.67 14.6505 79.7694 14.4155C79.8779 14.1806 80.0179 13.9772 80.1896 13.8056C80.3704 13.6248 80.5782 13.4848 80.8131 13.3854C81.0481 13.2769 81.3011 13.2227 81.5722 13.2227H81.6129C81.9201 13.2227 82.2093 13.2905 82.4804 13.426C82.7515 13.5616 82.9774 13.7513 83.1581 13.9953L88.4715 20.9624V14.8221Z" fill="black"/>
<path d="M103.823 24.3239C104.003 24.586 104.094 24.8616 104.094 25.1507C104.103 25.4399 104.044 25.7065 103.918 25.9505C103.791 26.1854 103.606 26.3842 103.362 26.5469C103.118 26.7005 102.842 26.7773 102.535 26.7773H102.494C102.232 26.7773 101.984 26.7186 101.749 26.6011C101.523 26.4746 101.338 26.3029 101.193 26.086L98.8211 22.5618H96.8421V25.1507C96.8421 25.3766 96.7969 25.589 96.7065 25.7878C96.6252 25.9776 96.5077 26.1493 96.3541 26.3029C96.2095 26.4475 96.0378 26.5649 95.839 26.6553C95.6493 26.7366 95.4414 26.7773 95.2155 26.7773H95.1884C94.9625 26.7773 94.7502 26.7366 94.5514 26.6553C94.3616 26.5649 94.1899 26.4475 94.0363 26.3029C93.8917 26.1493 93.7742 25.9776 93.6839 25.7878C93.6025 25.589 93.5619 25.3766 93.5619 25.1507V14.8493C93.5619 14.6233 93.6025 14.4155 93.6839 14.2257C93.7742 14.0269 93.8917 13.8553 94.0363 13.7107C94.1899 13.5571 94.3616 13.4396 94.5514 13.3583C94.7502 13.2679 94.9625 13.2227 95.1884 13.2227H99.7699C100.619 13.2227 101.378 13.3402 102.047 13.5751C102.725 13.8101 103.294 14.158 103.755 14.6188C104.541 15.405 104.934 16.4623 104.934 17.7906C104.934 18.7756 104.708 19.634 104.256 20.366C103.814 21.0979 103.145 21.6537 102.25 22.0332L103.823 24.3239ZM101.613 17.9126C101.613 17.5421 101.541 17.2484 101.396 17.0315C101.252 16.8056 101.071 16.6339 100.854 16.5165C100.646 16.39 100.42 16.3086 100.177 16.2725C99.9416 16.2363 99.7247 16.2183 99.5259 16.2183H96.8421V19.6205H99.5801C100.231 19.6205 100.732 19.4759 101.085 19.1867C101.437 18.8885 101.613 18.4774 101.613 17.9533V17.9126Z" fill="black"/>
<path d="M106.789 14.8493C106.789 14.6233 106.829 14.4155 106.911 14.2257C107.001 14.0269 107.118 13.8553 107.263 13.7107C107.417 13.5571 107.588 13.4396 107.778 13.3583C107.977 13.2679 108.189 13.2227 108.415 13.2227H115.68C115.888 13.2227 116.083 13.2634 116.263 13.3447C116.444 13.426 116.602 13.5345 116.738 13.67C116.873 13.8056 116.982 13.9637 117.063 14.1444C117.144 14.3251 117.185 14.5194 117.185 14.7273V14.7679C117.185 14.9758 117.144 15.17 117.063 15.3508C116.982 15.5315 116.873 15.6896 116.738 15.8252C116.602 15.9607 116.444 16.0692 116.263 16.1505C116.083 16.2318 115.888 16.2725 115.68 16.2725H110.028V18.4683H114.772C114.971 18.4683 115.161 18.509 115.342 18.5903C115.522 18.6626 115.676 18.7665 115.802 18.9021C115.938 19.0286 116.042 19.1822 116.114 19.3629C116.195 19.5437 116.236 19.7334 116.236 19.9322V19.9729C116.236 20.1717 116.195 20.3615 116.114 20.5422C116.042 20.7139 115.938 20.8675 115.802 21.003C115.676 21.1386 115.522 21.247 115.342 21.3283C115.161 21.4006 114.971 21.4368 114.772 21.4368H110.028V23.7275H115.68C115.888 23.7275 116.083 23.7682 116.263 23.8495C116.444 23.9308 116.602 24.0393 116.738 24.1748C116.873 24.3104 116.982 24.4685 117.063 24.6492C117.144 24.8299 117.185 25.0242 117.185 25.2321V25.2727C117.185 25.4806 117.144 25.6749 117.063 25.8556C116.982 26.0363 116.873 26.1944 116.738 26.33C116.602 26.4655 116.444 26.574 116.263 26.6553C116.083 26.7366 115.888 26.7773 115.68 26.7773H108.415C108.189 26.7773 107.977 26.7366 107.778 26.6553C107.588 26.5649 107.417 26.4475 107.263 26.3029C107.118 26.1493 107.001 25.9776 106.911 25.7878C106.829 25.589 106.789 25.3766 106.789 25.1507V14.8493Z" fill="black"/>
<path d="M125.515 13.2227C125.948 13.2227 126.346 13.3402 126.707 13.5751C127.069 13.8101 127.335 14.1309 127.507 14.5375L131.804 24.6221C131.912 24.8751 131.948 25.1327 131.912 25.3947C131.885 25.6477 131.804 25.8782 131.668 26.086C131.533 26.2848 131.352 26.452 131.126 26.5875C130.909 26.714 130.661 26.7773 130.381 26.7773H130.34C130.024 26.7773 129.735 26.6914 129.473 26.5198C129.21 26.339 129.021 26.1041 128.903 25.8149L128.104 23.8359H122.817L122.004 25.8285C121.886 26.1176 121.701 26.3481 121.448 26.5198C121.195 26.6914 120.911 26.7773 120.594 26.7773H120.567C120.296 26.7773 120.052 26.714 119.835 26.5875C119.618 26.461 119.442 26.2984 119.307 26.0996C119.171 25.8917 119.085 25.6658 119.049 25.4218C119.022 25.1688 119.063 24.9158 119.171 24.6628C119.93 22.8916 120.581 21.369 121.123 20.0949C121.665 18.8117 122.112 17.759 122.465 16.9367C122.88 15.9788 123.224 15.1791 123.495 14.5375C123.667 14.1309 123.933 13.8101 124.295 13.5751C124.656 13.3402 125.054 13.2227 125.487 13.2227H125.515ZM126.924 20.9488L125.46 17.384L124.01 20.9488H126.924Z" fill="black"/>
<path d="M142.148 23.7817C142.356 23.7817 142.55 23.8224 142.731 23.9037C142.912 23.976 143.065 24.0799 143.192 24.2155C143.327 24.351 143.431 24.5092 143.503 24.6899C143.585 24.8706 143.625 25.0604 143.625 25.2592V25.2998C143.625 25.5077 143.585 25.702 143.503 25.8827C143.431 26.0544 143.327 26.208 143.192 26.3435C143.056 26.4791 142.898 26.5875 142.717 26.6689C142.537 26.7411 142.347 26.7773 142.148 26.7773H135.438C135.213 26.7773 134.996 26.7366 134.788 26.6553C134.589 26.5649 134.413 26.4475 134.259 26.3029C134.115 26.1493 133.997 25.9731 133.907 25.7743C133.825 25.5664 133.785 25.3495 133.785 25.1236V14.8493C133.785 14.6233 133.825 14.4155 133.907 14.2257C133.997 14.0269 134.115 13.8553 134.259 13.7107C134.413 13.5571 134.584 13.4396 134.774 13.3583C134.973 13.2679 135.185 13.2227 135.411 13.2227H135.438C135.664 13.2227 135.872 13.2679 136.062 13.3583C136.261 13.4396 136.432 13.5571 136.577 13.7107C136.731 13.8553 136.848 14.0269 136.929 14.2257C137.02 14.4155 137.065 14.6233 137.065 14.8493V23.7817H142.148Z" fill="black"/>
<path d="M152.175 25.1778C152.175 25.3947 152.129 25.6026 152.039 25.8014C151.958 25.9911 151.845 26.1583 151.7 26.3029C151.556 26.4475 151.384 26.5649 151.185 26.6553C150.995 26.7366 150.792 26.7773 150.575 26.7773H150.562C150.336 26.7773 150.123 26.7366 149.925 26.6553C149.735 26.5649 149.563 26.4475 149.41 26.3029C149.265 26.1583 149.147 25.9866 149.057 25.7878C148.976 25.589 148.935 25.3766 148.935 25.1507V14.8493C148.935 14.6233 148.976 14.4155 149.057 14.2257C149.147 14.0269 149.265 13.8553 149.41 13.7107C149.563 13.5571 149.735 13.4396 149.925 13.3583C150.123 13.2679 150.336 13.2227 150.562 13.2227H157.827C158.035 13.2227 158.229 13.2634 158.41 13.3447C158.59 13.426 158.749 13.5345 158.884 13.67C159.02 13.8056 159.128 13.9637 159.209 14.1444C159.291 14.3251 159.331 14.5194 159.331 14.7273V14.7679C159.331 14.9758 159.291 15.17 159.209 15.3508C159.128 15.5315 159.02 15.6896 158.884 15.8252C158.749 15.9607 158.59 16.0692 158.41 16.1505C158.229 16.2318 158.035 16.2725 157.827 16.2725H152.175V18.4683H156.919C157.118 18.4683 157.307 18.509 157.488 18.5903C157.669 18.6626 157.822 18.7665 157.949 18.9021C158.084 19.0376 158.188 19.1958 158.261 19.3765C158.342 19.5482 158.383 19.7334 158.383 19.9322V19.9729C158.383 20.1807 158.342 20.375 158.261 20.5557C158.188 20.7274 158.084 20.881 157.949 21.0166C157.822 21.1431 157.669 21.247 157.488 21.3283C157.307 21.4006 157.118 21.4368 156.919 21.4368H152.175V25.1778Z" fill="black"/>
<path d="M161.196 14.795C161.196 14.5691 161.236 14.3613 161.318 14.1715C161.408 13.9727 161.525 13.801 161.67 13.6565C161.824 13.5028 161.995 13.3854 162.185 13.304C162.384 13.2137 162.596 13.1685 162.822 13.1685H162.849C163.075 13.1685 163.283 13.2137 163.473 13.304C163.672 13.3854 163.843 13.5028 163.988 13.6565C164.141 13.801 164.259 13.9727 164.34 14.1715C164.431 14.3613 164.476 14.5691 164.476 14.795V25.0965C164.476 25.3224 164.431 25.5348 164.34 25.7336C164.259 25.9324 164.141 26.1041 163.988 26.2487C163.843 26.3932 163.672 26.5107 163.473 26.6011C163.283 26.6824 163.075 26.7231 162.849 26.7231H162.822C162.596 26.7231 162.384 26.6824 162.185 26.6011C161.995 26.5107 161.824 26.3932 161.67 26.2487C161.525 26.1041 161.408 25.9324 161.318 25.7336C161.236 25.5348 161.196 25.3224 161.196 25.0965V14.795Z" fill="black"/>
<path d="M175.186 14.8221C175.186 14.5962 175.226 14.3884 175.308 14.1986C175.398 13.9998 175.516 13.8281 175.66 13.6836C175.805 13.539 175.972 13.426 176.162 13.3447C176.36 13.2634 176.568 13.2227 176.785 13.2227H176.812C177.029 13.2227 177.232 13.2679 177.422 13.3583C177.621 13.4396 177.793 13.5525 177.937 13.6971C178.082 13.8417 178.195 14.0134 178.276 14.2122C178.366 14.402 178.412 14.6053 178.412 14.8221V24.961C178.412 25.214 178.362 25.4535 178.263 25.6794C178.172 25.8962 178.046 26.086 177.883 26.2487C177.72 26.4113 177.526 26.5423 177.3 26.6417C177.083 26.7321 176.848 26.7773 176.595 26.7773H176.568C176.279 26.7773 176.008 26.714 175.755 26.5875C175.502 26.461 175.29 26.2848 175.118 26.0589L169.561 18.7665V25.1778C169.561 25.4038 169.515 25.6161 169.425 25.8149C169.344 26.0047 169.231 26.1719 169.086 26.3164C168.942 26.461 168.77 26.574 168.571 26.6553C168.381 26.7366 168.178 26.7773 167.961 26.7773H167.934C167.717 26.7773 167.509 26.7366 167.31 26.6553C167.121 26.5649 166.954 26.4475 166.809 26.3029C166.664 26.1583 166.547 25.9911 166.457 25.8014C166.375 25.6026 166.335 25.3947 166.335 25.1778V15.1746C166.335 14.9035 166.384 14.6505 166.484 14.4155C166.592 14.1806 166.732 13.9772 166.904 13.8056C167.085 13.6248 167.292 13.4848 167.527 13.3854C167.762 13.2769 168.015 13.2227 168.286 13.2227H168.327C168.634 13.2227 168.923 13.2905 169.195 13.426C169.466 13.5616 169.692 13.7513 169.872 13.9953L175.186 20.9624V14.8221Z" fill="black"/>
<path d="M186.742 13.2227C187.175 13.2227 187.573 13.3402 187.934 13.5751C188.296 13.8101 188.562 14.1309 188.734 14.5375L193.031 24.6221C193.139 24.8751 193.176 25.1327 193.139 25.3947C193.112 25.6477 193.031 25.8782 192.895 26.086C192.76 26.2848 192.579 26.452 192.353 26.5875C192.136 26.714 191.888 26.7773 191.608 26.7773H191.567C191.251 26.7773 190.962 26.6914 190.7 26.5198C190.437 26.339 190.248 26.1041 190.13 25.8149L189.331 23.8359H184.044L183.231 25.8285C183.113 26.1176 182.928 26.3481 182.675 26.5198C182.422 26.6914 182.138 26.7773 181.821 26.7773H181.794C181.523 26.7773 181.279 26.714 181.062 26.5875C180.845 26.461 180.669 26.2984 180.534 26.0996C180.398 25.8917 180.312 25.6658 180.276 25.4218C180.249 25.1688 180.29 24.9158 180.398 24.6628C181.157 22.8916 181.808 21.369 182.35 20.0949C182.892 18.8117 183.339 17.759 183.692 16.9367C184.107 15.9788 184.451 15.1791 184.722 14.5375C184.894 14.1309 185.16 13.8101 185.522 13.5751C185.883 13.3402 186.281 13.2227 186.714 13.2227H186.742ZM188.151 20.9488L186.687 17.384L185.237 20.9488H188.151Z" fill="black"/>
<path d="M203.863 14.8221C203.863 14.5962 203.904 14.3884 203.985 14.1986C204.075 13.9998 204.193 13.8281 204.337 13.6836C204.482 13.539 204.649 13.426 204.839 13.3447C205.038 13.2634 205.246 13.2227 205.462 13.2227H205.49C205.706 13.2227 205.91 13.2679 206.099 13.3583C206.298 13.4396 206.47 13.5525 206.615 13.6971C206.759 13.8417 206.872 14.0134 206.953 14.2122C207.044 14.402 207.089 14.6053 207.089 14.8221V24.961C207.089 25.214 207.039 25.4535 206.94 25.6794C206.849 25.8962 206.723 26.086 206.56 26.2487C206.398 26.4113 206.203 26.5423 205.977 26.6417C205.761 26.7321 205.526 26.7773 205.273 26.7773H205.246C204.956 26.7773 204.685 26.714 204.432 26.5875C204.179 26.461 203.967 26.2848 203.795 26.0589L198.238 18.7665V25.1778C198.238 25.4038 198.193 25.6161 198.102 25.8149C198.021 26.0047 197.908 26.1719 197.763 26.3164C197.619 26.461 197.447 26.574 197.248 26.6553C197.059 26.7366 196.855 26.7773 196.638 26.7773H196.611C196.394 26.7773 196.187 26.7366 195.988 26.6553C195.798 26.5649 195.631 26.4475 195.486 26.3029C195.342 26.1583 195.224 25.9911 195.134 25.8014C195.052 25.6026 195.012 25.3947 195.012 25.1778V15.1746C195.012 14.9035 195.061 14.6505 195.161 14.4155C195.269 14.1806 195.409 13.9772 195.581 13.8056C195.762 13.6248 195.97 13.4848 196.205 13.3854C196.44 13.2769 196.693 13.2227 196.964 13.2227H197.004C197.312 13.2227 197.601 13.2905 197.872 13.426C198.143 13.5616 198.369 13.7513 198.55 13.9953L203.863 20.9624V14.8221Z" fill="black"/>
<path d="M220.312 23.3073C220.475 23.47 220.592 23.6507 220.664 23.8495C220.737 24.0483 220.764 24.2516 220.746 24.4595C220.737 24.6673 220.683 24.8661 220.583 25.0559C220.484 25.2456 220.348 25.4128 220.177 25.5574L219.729 25.8827C219.612 25.955 219.494 26.0228 219.377 26.086C219.259 26.1493 219.137 26.2125 219.011 26.2758C218.586 26.4836 218.103 26.6417 217.56 26.7502C217.045 26.8586 216.463 26.9128 215.812 26.9128C214.818 26.9128 213.91 26.7366 213.087 26.3842C212.247 26.0228 211.52 25.5348 210.905 24.9203C210.291 24.2878 209.812 23.5558 209.468 22.7245C209.125 21.875 208.953 20.9804 208.953 20.0407V20C208.953 19.0421 209.125 18.1475 209.468 17.3162C209.631 16.9096 209.83 16.5255 210.065 16.1641C210.309 15.7936 210.589 15.4457 210.905 15.1203C211.502 14.4968 212.234 13.9998 213.101 13.6293C213.969 13.2679 214.908 13.0872 215.92 13.0872C216.237 13.0872 216.535 13.1007 216.815 13.1278C217.095 13.1459 217.366 13.182 217.628 13.2363C217.881 13.2814 218.125 13.3402 218.36 13.4125C218.595 13.4848 218.817 13.5661 219.024 13.6565C219.124 13.7016 219.219 13.7468 219.309 13.792C219.399 13.8281 219.49 13.8688 219.58 13.914C219.643 13.9501 219.702 13.9863 219.756 14.0224C219.82 14.0586 219.883 14.0992 219.946 14.1444C220.145 14.2709 220.303 14.4336 220.42 14.6324C220.538 14.8221 220.61 15.0255 220.637 15.2423C220.664 15.4592 220.646 15.6761 220.583 15.893C220.52 16.1098 220.411 16.3086 220.258 16.4894L220.244 16.5165C220.118 16.6701 219.969 16.7921 219.797 16.8824C219.625 16.9638 219.449 17.018 219.268 17.0451C219.088 17.0722 218.902 17.0677 218.713 17.0315C218.532 16.9954 218.36 16.9231 218.198 16.8147C218.098 16.7514 217.999 16.6927 217.899 16.6385C217.8 16.5842 217.701 16.53 217.601 16.4758C217.348 16.3493 217.082 16.2544 216.801 16.1912C216.521 16.1279 216.223 16.0963 215.907 16.0963C215.383 16.0963 214.904 16.1957 214.47 16.3945C214.027 16.6023 213.648 16.8779 213.331 17.2213C213.006 17.5918 212.758 18.003 212.586 18.4548C212.405 18.9518 212.315 19.4533 212.315 19.9593V20C212.315 20.5151 212.405 21.0211 212.586 21.5181C212.676 21.7531 212.78 21.9744 212.898 22.1823C213.015 22.3901 213.155 22.5844 213.318 22.7651C213.634 23.1085 214.014 23.3841 214.456 23.592C214.917 23.7998 215.401 23.9037 215.907 23.9037C216.621 23.9037 217.222 23.7727 217.71 23.5106C217.926 23.3932 218.134 23.2621 218.333 23.1176C218.487 23.0091 218.649 22.9323 218.821 22.8871C218.993 22.8419 219.164 22.8284 219.336 22.8465C219.517 22.8555 219.689 22.8962 219.851 22.9685C220.014 23.0407 220.163 23.1447 220.299 23.2802L220.312 23.3073Z" fill="black"/>
<path d="M222.604 14.8493C222.604 14.6233 222.644 14.4155 222.726 14.2257C222.816 14.0269 222.933 13.8553 223.078 13.7107C223.232 13.5571 223.403 13.4396 223.593 13.3583C223.792 13.2679 224.004 13.2227 224.23 13.2227H231.495C231.703 13.2227 231.898 13.2634 232.078 13.3447C232.259 13.426 232.417 13.5345 232.553 13.67C232.688 13.8056 232.797 13.9637 232.878 14.1444C232.959 14.3251 233 14.5194 233 14.7273V14.7679C233 14.9758 232.959 15.17 232.878 15.3508C232.797 15.5315 232.688 15.6896 232.553 15.8252C232.417 15.9607 232.259 16.0692 232.078 16.1505C231.898 16.2318 231.703 16.2725 231.495 16.2725H225.843V18.4683H230.587C230.786 18.4683 230.976 18.509 231.157 18.5903C231.337 18.6626 231.491 18.7665 231.617 18.9021C231.753 19.0286 231.857 19.1822 231.929 19.3629C232.011 19.5437 232.051 19.7334 232.051 19.9322V19.9729C232.051 20.1717 232.011 20.3615 231.929 20.5422C231.857 20.7139 231.753 20.8675 231.617 21.003C231.491 21.1386 231.337 21.247 231.157 21.3283C230.976 21.4006 230.786 21.4368 230.587 21.4368H225.843V23.7275H231.495C231.703 23.7275 231.898 23.7682 232.078 23.8495C232.259 23.9308 232.417 24.0393 232.553 24.1748C232.688 24.3104 232.797 24.4685 232.878 24.6492C232.959 24.8299 233 25.0242 233 25.2321V25.2727C233 25.4806 232.959 25.6749 232.878 25.8556C232.797 26.0363 232.688 26.1944 232.553 26.33C232.417 26.4655 232.259 26.574 232.078 26.6553C231.898 26.7366 231.703 26.7773 231.495 26.7773H224.23C224.004 26.7773 223.792 26.7366 223.593 26.6553C223.403 26.5649 223.232 26.4475 223.078 26.3029C222.933 26.1493 222.816 25.9776 222.726 25.7878C222.644 25.589 222.604 25.3766 222.604 25.1507V14.8493Z" fill="black"/>
<defs>
<clipPath id="clip0_215_2479">
<rect width="57.1474" height="24.6862" fill="white" transform="translate(0.928589 0.917969)"/>
</clipPath>
</defs>
</svg>
